<svg xmlns="http://www.w3.org/2000/svg" xmlns:xlink="http://www.w3.org/1999/xlink" version="1.1" x="0px" y="0px" viewBox="0 0 99.956 99.962" enable-background="new 0 0 99.956 99.962" xml:space="preserve"><g><path d="M49.984,0C22.384,0.008,0.01,22.375,0,49.98c0.01,27.606,22.384,49.975,49.984,49.982   c27.605-0.008,49.971-22.376,49.971-49.982C99.956,22.375,77.589,0.008,49.984,0z M8.014,49.98   c0.018-8.941,2.838-17.206,7.602-24.007c0.039,3.958,1.506,8.964,6.333,14.757c5.609,6.728,11.495,9.536,20.753,15.144   c9.253,5.602,7.846,8.128,5.597,10.655c-2.241,2.52-7.564,11.765,0.841,16.818c6.478,3.88,7.581,4.2,6.454,7.564   c-0.081,0.246-0.17,0.422-0.256,0.649c-1.756,0.227-3.533,0.383-5.352,0.388C26.808,91.91,8.057,73.163,8.014,49.98z    M68.676,87.493c1.898-2.8,3.933-6.535,5.69-11.436c3.936-10.928,5.891-25.229-1.674-23.546   c-6.665,1.479-14.855,3.081-18.789,3.638c-3.919,0.562-8.688-3.364-14.011-6.165c-5.323-2.801-8.409-7.573-4.209-10.654   c4.209-3.082,12.614,7.572,15.427,4.208c2.793-3.364,0.844-6.454,4.481-13.736c3.642-7.291,3.989-5.953,6.728-12.055   c1.379-3.076,1.111-5.707,0.25-7.791c17.015,5.358,29.349,21.23,29.382,40.023C91.922,66.431,82.445,80.614,68.676,87.493z"></path></g></svg>