<svg xmlns="http://www.w3.org/2000/svg" xmlns:xlink="http://www.w3.org/1999/xlink" version="1.1" x="0px" y="0px" viewBox="0 0 100 100" enable-background="new 0 0 100 100" xml:space="preserve"><g><path d="M50,5C35.939,5,24.544,16.403,24.544,30.46c0,0.727,0.041,1.436,0.097,2.149c0.024,0.252,0.056,0.516,0.086,0.762   c0.045,0.429,0.101,0.851,0.173,1.27c0.055,0.335,0.107,0.664,0.177,0.99c0.045,0.225,0.104,0.45,0.152,0.675   C27.544,46.38,35.383,54.46,41.425,68.293c1.806,4.139,3.384,8.575,4.675,12.628L50,95l3.9-14.081   c1.293-4.052,2.869-8.489,4.675-12.628c6.042-13.833,13.884-21.913,16.188-31.987c0.06-0.225,0.104-0.45,0.152-0.675   c0.066-0.325,0.125-0.654,0.18-0.99c0.065-0.419,0.133-0.841,0.178-1.27c0.031-0.246,0.062-0.509,0.082-0.762   c0.063-0.713,0.102-1.422,0.102-2.149C75.456,16.403,64.061,5,50,5z M49.996,41.966c-6.35,0-11.503-5.156-11.503-11.51   s5.153-11.503,11.503-11.503c6.357,0,11.51,5.149,11.51,11.503S56.354,41.966,49.996,41.966z"></path></g></svg>